inDegrees=yes
name=ik_S52_A13_T02
DataType=double
version=3
OpenSimVersion=4.3-2021-08-27-4bc7ad9
endheader
time	pelvis_tilt	pelvis_list	pelvis_rotation	pelvis_tx	pelvis_ty	pelvis_tz	hip_flexion_r	hip_adduction_r	hip_rotation_r	knee_angle_r	knee_angle_r_beta	ankle_angle_r	subtalar_angle_r	mtp_angle_r	hip_flexion_l	hip_adduction_l	hip_rotation_l	knee_angle_l	knee_angle_l_beta	ankle_angle_l	subtalar_angle_l	mtp_angle_l	lumbar_extension	lumbar_bending	lumbar_rotation	arm_flex_r	arm_add_r	arm_rot_r	elbow_flex_r	pro_sup_r	wrist_flex_r	wrist_dev_r	arm_flex_l	arm_add_l	arm_rot_l	elbow_flex_l	pro_sup_l	wrist_flex_l	wrist_dev_l
5.659999999999967	-1.765024567729133	-0.03711298191452847	18.45431728405147	0	0.9399999999999999	0	16.89581568854205	-6.820451812924304	-5.465380530997146	20.8297340429582	0.3635474413643706	0	0	0	16.89581568854205	-6.820451812924304	-5.465380530997146	20.8297340429582	0.3635474413643706	0	0	0	-0.2896738290793749	0.4584838161415921	8.879995436845233	63.90845258708054	-31.5351575094834	23.20889147136275	108.5934875543094	94.12084681568756	0	0	85.87480010454077	-25.12301944926089	25.14049828126782	19.80518958592859	117.3882207470961	0	0
5.679999999999967	-1.775517746295435	-0.01451367601096402	18.08853305143917	0	0.9399999999999999	0	16.92430648434791	-6.830209032054364	-5.474323528895219	20.85721005209585	0.3640269881891307	0	0	0	16.92430648434791	-6.830209032054364	-5.474323528895219	20.85721005209585	0.3640269881891307	0	0	0	-0.2911023396619859	0.4802283053771388	9.0908298060939	63.10538732174852	-31.58565565163377	20.99768857313875	107.6101963967828	91.60785411921523	0	0	85.71658663362531	-25.2873663166235	24.78903409841878	19.89785700879803	116.8380800946595	0	0
5.699999999999966	-1.863470052971267	-0.006188286800713964	17.77753346528268	0	0.9399999999999999	0	16.93825941109542	-6.834972350233147	-5.478696489386986	20.87068705293262	0.3642622062270263	0	0	0	16.93825941109542	-6.834972350233147	-5.478696489386986	20.87068705293262	0.3642622062270263	0	0	0	-0.3725883777819344	0.5139052625890362	9.148499053325356	62.84805804995776	-31.50005187899264	19.37617839113765	108.1794386212867	91.39268108367155	0	0	85.62812356511022	-25.51410150654692	24.2952706150799	20.15526502197879	116.1957462275072	0	0
5.719999999999966	-1.899811390587756	0.0143208394104162	17.66510700832896	0	0.9399999999999999	0	17.33715679281328	-6.933132358000147	-5.584091337863549	21.34579842402828	0.3725544639663102	0	0	0	17.33715679281328	-6.933132358000147	-5.584091337863549	21.34579842402828	0.3725544639663102	0	0	0	-0.4113430480346784	0.5397856039808925	9.212852259228475	62.18419236397675	-30.66546299768769	16.30790140923056	108.2396384740147	91.67399052930719	0	0	85.36883489119887	-25.60008798074103	23.55245441751808	20.56534191889449	115.9493697149215	0	0
5.739999999999966	-1.907013589615709	0.02218268132303127	17.79073383482724	0	0.9399999999999999	0	18.28891390110444	-7.160485729303166	-5.832023462954865	22.47971964441112	0.3923451227202229	0	0	0	18.28891390110444	-7.160485729303166	-5.832023462954865	22.47971964441112	0.3923451227202229	0	0	0	-0.4500740635090529	0.5492933606672229	9.076696587037162	61.60206171577713	-28.73860203791486	13.60240554138732	101.0233755384094	85.04334666165043	0	0	85.15736865806632	-25.58466031288842	22.67126843745122	21.06446493100024	115.756149654696	0	0
5.759999999999965	-1.878669307275077	0.03677688244124224	18.1847990941693	0	0.9399999999999999	0	19.14462569812423	-7.357074353252163	-6.050604771136559	23.4941986937927	0.4100511223244337	0	0	0	19.14462569812423	-7.357074353252163	-6.050604771136559	23.4941986937927	0.4100511223244337	0	0	0	-0.4706888928023963	0.549802900551885	8.638963772061665	61.52320061783389	-26.75068043688836	11.31635331093366	94.43793823884627	76.31197648659655	0	0	84.95898873483468	-25.58993878064793	21.97032741011771	21.37678871800993	115.9112705752247	0	0
5.779999999999965	-1.877354475306712	0.04951664730460473	18.09373633257533	0	0.9399999999999999	0	19.17688982886686	-7.367243995020327	-6.06039063648045	23.52451055135939	0.4105801640413679	0	0	0	19.17688982886686	-7.367243995020327	-6.06039063648045	23.52451055135939	0.4105801640413679	0	0	0	-0.4646293247239938	0.5606679024704785	8.661769724666279	61.90842631099394	-25.08419167982851	9.606703594553851	91.37117772768936	75.78502653834794	0	0	84.62865373534888	-25.52426847636968	21.60252862112407	22.80620614092308	113.5815125675309	0	0
